<?xml version="1.0" encoding="utf-8"?>
<!-- Generator: $$$/GeneralStr/196=Adobe Illustrator 27.6.0, SVG Export Plug-In . SVG Version: 6.00 Build 0)  -->
<svg version="1.1" id="LINE_LOGO" xmlns="http://www.w3.org/2000/svg" xmlns:xlink="http://www.w3.org/1999/xlink" x="0px" y="0px"
	 viewBox="0 0 30 30" style="enable-background:new 0 0 30 30;" xml:space="preserve">
<style type="text/css">
	.st0{fill:#E7725C;}
	.st1{fill:#FFFFFF;}
</style>
<g>
	<path id="Rectangle_18" class="st0" d="M7.6,1.5h14.8c3.4,0,6.1,2.7,6.1,6.1v14.8c0,3.4-2.7,6.1-6.1,6.1H7.6
		c-3.4,0-6.1-2.7-6.1-6.1V7.6C1.5,4.3,4.3,1.5,7.6,1.5z"/>
	<path id="Path_76" class="st1" d="M24,13.7c0-4-4-7.3-9-7.3s-9,3.3-9,7.3c0,3.6,3.2,6.6,7.5,7.2c0.3,0.1,0.7,0.2,0.8,0.4
		c0.1,0.3,0.1,0.5,0,0.8c0,0-0.1,0.6-0.1,0.8c0,0.2-0.2,0.9,0.8,0.5c2.6-1.4,5-3.1,7.1-5.2l0,0C23.3,17,23.9,15.4,24,13.7z"/>
	<path id="Path_77" class="st0" d="M21,16.1h-2.5c-0.1,0-0.2-0.1-0.2-0.2l0,0l0,0V12l0,0c0-0.1,0.1-0.2,0.2-0.2H21
		c0.1,0,0.2,0.1,0.2,0.2l0,0v0.6c0,0.1-0.1,0.2-0.2,0.2l0,0h-1.7v0.7H21c0.1,0,0.2,0.1,0.2,0.2l0,0v0.6c0,0.1-0.1,0.2-0.2,0.2l0,0
		h-1.7v0.7H21c0.1,0,0.2,0.1,0.2,0.2l0,0V16C21.2,16,21.1,16.1,21,16.1L21,16.1z"/>
	<path id="Path_78" class="st0" d="M11.7,16.1c0.1,0,0.2-0.1,0.2-0.2v-0.6c0-0.1-0.1-0.2-0.2-0.2H9.9V12c0-0.1-0.1-0.2-0.2-0.2H9.1
		C9,11.8,9,11.9,9,12v3.9l0,0c0,0.1,0,0.2,0.1,0.2l0,0H11.7z"/>
	<path id="Rectangle_19" class="st0" d="M12.5,11.8h0.6c0.1,0,0.2,0.1,0.2,0.2v3.9c0,0.1-0.1,0.2-0.2,0.2h-0.6
		c-0.1,0-0.2-0.1-0.2-0.2V12C12.4,11.9,12.4,11.8,12.5,11.8z"/>
	<path id="Path_79" class="st0" d="M17.5,11.8h-0.6c-0.1,0-0.2,0.1-0.2,0.2l0,0v2.3l-1.8-2.4l0,0l0,0l0,0h-0.7
		c-0.1,0-0.2,0.1-0.2,0.2V16c0,0.1,0.1,0.2,0.2,0.2l0,0h0.6c0.1,0,0.2-0.1,0.2-0.2l0,0v-2.3l1.8,2.4l0,0h0.7c0.1,0,0.2-0.1,0.2-0.2
		V12C17.7,11.9,17.6,11.8,17.5,11.8L17.5,11.8L17.5,11.8z"/>
</g>
</svg>
